<?xml version="1.0" encoding="UTF-8" standalone="no"?>
<!-- Created with Inkscape (http://www.inkscape.org/) -->

<svg
   xmlns:dc="http://purl.org/dc/elements/1.1/"
   xmlns:cc="http://creativecommons.org/ns#"
   xmlns:rdf="http://www.w3.org/1999/02/22-rdf-syntax-ns#"
   xmlns:svg="http://www.w3.org/2000/svg"
   xmlns="http://www.w3.org/2000/svg"
   xmlns:xlink="http://www.w3.org/1999/xlink"
   xmlns:sodipodi="http://sodipodi.sourceforge.net/DTD/sodipodi-0.dtd"
   xmlns:inkscape="http://www.inkscape.org/namespaces/inkscape"
   width="550.00183"
   height="329.23502"
   id="svg2"
   version="1.1"
   inkscape:version="0.48.4 r9939"
   sodipodi:docname="New document 1">
  <defs
     id="defs4">
    <clipPath
       id="clipPath3351"
       clipPathUnits="userSpaceOnUse">
      <path
         id="path3353"
         clip-rule="evenodd"
         d="m 162.12,165.96 449.28,0 0,31.68 -449.28,0 0,-31.68 z"
         inkscape:connector-curvature="0" />
    </clipPath>
    <clipPath
       id="clipPath3337"
       clipPathUnits="userSpaceOnUse">
      <path
         id="path3339"
         clip-rule="evenodd"
         d="m 51.24,85.92 689.52,0 0,412.56 -689.52,0 0,-412.56 z"
         inkscape:connector-curvature="0" />
    </clipPath>
    <clipPath
       id="clipPath3325"
       clipPathUnits="userSpaceOnUse">
      <path
         id="path3327"
         clip-rule="evenodd"
         d="m 51.24,85.92 689.52,0 0,412.56 -689.52,0 0,-412.56 z"
         inkscape:connector-curvature="0" />
    </clipPath>
    <clipPath
       id="clipPath3313"
       clipPathUnits="userSpaceOnUse">
      <path
         id="path3315"
         clip-rule="evenodd"
         d="m 51.24,85.92 689.52,0 0,412.56 -689.52,0 0,-412.56 z"
         inkscape:connector-curvature="0" />
    </clipPath>
    <clipPath
       id="clipPath3301"
       clipPathUnits="userSpaceOnUse">
      <path
         id="path3303"
         clip-rule="evenodd"
         d="m 51.24,85.92 689.52,0 0,412.56 -689.52,0 0,-412.56 z"
         inkscape:connector-curvature="0" />
    </clipPath>
    <clipPath
       id="clipPath3289"
       clipPathUnits="userSpaceOnUse">
      <path
         id="path3291"
         clip-rule="evenodd"
         d="m 51.24,85.92 689.52,0 0,412.56 -689.52,0 0,-412.56 z"
         inkscape:connector-curvature="0" />
    </clipPath>
    <clipPath
       id="clipPath3277"
       clipPathUnits="userSpaceOnUse">
      <path
         id="path3279"
         clip-rule="evenodd"
         d="m 51.24,85.92 689.52,0 0,412.56 -689.52,0 0,-412.56 z"
         inkscape:connector-curvature="0" />
    </clipPath>
    <clipPath
       id="clipPath3265"
       clipPathUnits="userSpaceOnUse">
      <path
         id="path3267"
         clip-rule="evenodd"
         d="m 51.24,85.92 689.52,0 0,412.56 -689.52,0 0,-412.56 z"
         inkscape:connector-curvature="0" />
    </clipPath>
    <clipPath
       id="clipPath3253"
       clipPathUnits="userSpaceOnUse">
      <path
         id="path3255"
         clip-rule="evenodd"
         d="m 51.24,85.92 689.52,0 0,412.56 -689.52,0 0,-412.56 z"
         inkscape:connector-curvature="0" />
    </clipPath>
    <clipPath
       id="clipPath3241"
       clipPathUnits="userSpaceOnUse">
      <path
         id="path3243"
         clip-rule="evenodd"
         d="m 51.24,85.92 689.52,0 0,412.56 -689.52,0 0,-412.56 z"
         inkscape:connector-curvature="0" />
    </clipPath>
    <clipPath
       id="clipPath3229"
       clipPathUnits="userSpaceOnUse">
      <path
         id="path3231"
         clip-rule="evenodd"
         d="m 51.24,85.92 689.52,0 0,412.56 -689.52,0 0,-412.56 z"
         inkscape:connector-curvature="0" />
    </clipPath>
    <clipPath
       id="clipPath3217"
       clipPathUnits="userSpaceOnUse">
      <path
         id="path3219"
         clip-rule="evenodd"
         d="m 51.24,85.92 689.52,0 0,412.56 -689.52,0 0,-412.56 z"
         inkscape:connector-curvature="0" />
    </clipPath>
    <clipPath
       id="clipPath3205"
       clipPathUnits="userSpaceOnUse">
      <path
         id="path3207"
         clip-rule="evenodd"
         d="m 51.24,85.92 689.52,0 0,412.56 -689.52,0 0,-412.56 z"
         inkscape:connector-curvature="0" />
    </clipPath>
    <clipPath
       id="clipPath3193"
       clipPathUnits="userSpaceOnUse">
      <path
         id="path3195"
         clip-rule="evenodd"
         d="m 51.24,85.92 689.52,0 0,412.56 -689.52,0 0,-412.56 z"
         inkscape:connector-curvature="0" />
    </clipPath>
    <clipPath
       id="clipPath3181"
       clipPathUnits="userSpaceOnUse">
      <path
         id="path3183"
         clip-rule="evenodd"
         d="m 51.24,85.92 689.52,0 0,412.56 -689.52,0 0,-412.56 z"
         inkscape:connector-curvature="0" />
    </clipPath>
    <clipPath
       id="clipPath3169"
       clipPathUnits="userSpaceOnUse">
      <path
         id="path3171"
         clip-rule="evenodd"
         d="m 51.24,85.92 689.52,0 0,412.56 -689.52,0 0,-412.56 z"
         inkscape:connector-curvature="0" />
    </clipPath>
    <clipPath
       id="clipPath3157"
       clipPathUnits="userSpaceOnUse">
      <path
         id="path3159"
         clip-rule="evenodd"
         d="m 51.24,85.92 689.52,0 0,412.56 -689.52,0 0,-412.56 z"
         inkscape:connector-curvature="0" />
    </clipPath>
    <clipPath
       id="clipPath3145"
       clipPathUnits="userSpaceOnUse">
      <path
         id="path3147"
         clip-rule="evenodd"
         d="m 51.24,85.92 689.52,0 0,412.56 -689.52,0 0,-412.56 z"
         inkscape:connector-curvature="0" />
    </clipPath>
    <clipPath
       id="clipPath3133"
       clipPathUnits="userSpaceOnUse">
      <path
         id="path3135"
         clip-rule="evenodd"
         d="m 51.24,85.92 689.52,0 0,412.56 -689.52,0 0,-412.56 z"
         inkscape:connector-curvature="0" />
    </clipPath>
    <clipPath
       id="clipPath3121"
       clipPathUnits="userSpaceOnUse">
      <path
         id="path3123"
         clip-rule="evenodd"
         d="m 51.24,85.92 689.52,0 0,412.56 -689.52,0 0,-412.56 z"
         inkscape:connector-curvature="0" />
    </clipPath>
    <clipPath
       id="clipPath3109"
       clipPathUnits="userSpaceOnUse">
      <path
         id="path3111"
         clip-rule="evenodd"
         d="m 51.24,85.92 689.52,0 0,412.56 -689.52,0 0,-412.56 z"
         inkscape:connector-curvature="0" />
    </clipPath>
    <clipPath
       id="clipPath3097"
       clipPathUnits="userSpaceOnUse">
      <path
         id="path3099"
         clip-rule="evenodd"
         d="m 51.24,85.92 689.52,0 0,412.56 -689.52,0 0,-412.56 z"
         inkscape:connector-curvature="0" />
    </clipPath>
    <clipPath
       id="clipPath3085"
       clipPathUnits="userSpaceOnUse">
      <path
         id="path3087"
         clip-rule="evenodd"
         d="m 51.24,85.92 689.52,0 0,412.56 -689.52,0 0,-412.56 z"
         inkscape:connector-curvature="0" />
    </clipPath>
    <clipPath
       id="clipPath3073"
       clipPathUnits="userSpaceOnUse">
      <path
         id="path3075"
         clip-rule="evenodd"
         d="m 51.24,85.92 689.52,0 0,412.56 -689.52,0 0,-412.56 z"
         inkscape:connector-curvature="0" />
    </clipPath>
    <clipPath
       id="clipPath3063"
       clipPathUnits="userSpaceOnUse">
      <path
         id="path3065"
         clip-rule="evenodd"
         d="m 114.58,151.79 597.37,0 0,293.43 -597.37,0 0,-293.43 z"
         inkscape:connector-curvature="0" />
    </clipPath>
    <radialGradient
       id="radialGradient2997"
       spreadMethod="pad"
       gradientTransform="matrix(401.83,1.4604e-5,-1.4604e-5,401.83,396.08,292.13)"
       gradientUnits="userSpaceOnUse"
       r="1"
       cy="0"
       cx="0"
       fy="0"
       fx="0">
      <stop
         id="stop2999"
         offset="0"
         style="stop-opacity:1;stop-color:#ffffff" />
      <stop
         id="stop3001"
         offset="1"
         style="stop-opacity:1;stop-color:#f2f2f2" />
    </radialGradient>
    <radialGradient
       inkscape:collect="always"
       xlink:href="#radialGradient2997"
       id="radialGradient3699"
       gradientUnits="userSpaceOnUse"
       gradientTransform="matrix(401.83,1.4604e-5,-1.4604e-5,401.83,396.08,292.13)"
       spreadMethod="pad"
       cx="0"
       cy="0"
       fx="0"
       fy="0"
       r="1" />
    <radialGradient
       inkscape:collect="always"
       xlink:href="#radialGradient2997"
       id="radialGradient3702"
       gradientUnits="userSpaceOnUse"
       gradientTransform="matrix(319.89463,-1.1626163e-5,-1.1626163e-5,-319.89463,341.06164,451.93422)"
       spreadMethod="pad"
       cx="0"
       cy="0"
       fx="0"
       fy="0"
       r="1" />
  </defs>
  <sodipodi:namedview
     id="base"
     pagecolor="#ffffff"
     bordercolor="#666666"
     borderopacity="1.0"
     inkscape:pageopacity="0.0"
     inkscape:pageshadow="2"
     inkscape:zoom="1.4"
     inkscape:cx="395.45427"
     inkscape:cy="24.50624"
     inkscape:document-units="px"
     inkscape:current-layer="layer1"
     showgrid="false"
     fit-margin-top="0"
     fit-margin-left="0"
     fit-margin-right="0"
     fit-margin-bottom="0"
     inkscape:window-width="1920"
     inkscape:window-height="1017"
     inkscape:window-x="-8"
     inkscape:window-y="-8"
     inkscape:window-maximized="1" />
  <metadata
     id="metadata7">
    <rdf:RDF>
      <cc:Work
         rdf:about="">
        <dc:format>image/svg+xml</dc:format>
        <dc:type
           rdf:resource="http://purl.org/dc/dcmitype/StillImage" />
        <dc:title></dc:title>
      </cc:Work>
    </rdf:RDF>
  </metadata>
  <g
     inkscape:label="Layer 1"
     inkscape:groupmode="layer"
     id="layer1"
     transform="translate(-66.071657,-287.32077)">
    <path
       id="path3003"
       style="fill:url(#radialGradient3702);fill-opacity:1;fill-rule:evenodd;stroke:none"
       d="m 66.50459,616.10402 549.11411,0 0,-328.3412 -549.11411,0 0,328.3412 z"
       inkscape:connector-curvature="0" />
    <path
       inkscape:connector-curvature="0"
       d="m 116.98494,563.73772 475.55498,0 m -475.55498,-26.01636 475.55498,0 m -475.55498,-25.94472 475.55498,0 m -475.55498,-25.93676 475.55498,0 m -475.55498,-25.93676 475.55498,0 m -475.55498,-25.94471 475.55498,0 m -475.55498,-25.93676 475.55498,0 m -475.55498,-25.94472 475.55498,0 m -475.55498,-25.93676 475.55498,0 m -475.55498,-25.96064 475.55498,0"
       style="fill:none;stroke:#d9d9d9;stroke-width:0.88589388;stroke-linecap:butt;stroke-linejoin:round;stroke-miterlimit:10;stroke-opacity:1;stroke-dasharray:none"
       id="path3005" />
    <path
       inkscape:connector-curvature="0"
       d="m 116.98494,330.17953 0,233.55819 m 52.84475,-233.55819 0,233.55819 m 52.87659,-233.55819 0,233.55819 m 52.86863,-233.55819 0,233.55819 m 52.7333,-233.55819 0,233.55819 m 52.86863,-233.55819 0,233.55819 m 52.86864,-233.55819 0,233.55819 m 52.87659,-233.55819 0,233.55819 m 52.72533,-233.55819 0,233.55819 m 52.89252,-233.55819 0,233.55819"
       style="fill:none;stroke:#d9d9d9;stroke-width:0.88589388;stroke-linecap:butt;stroke-linejoin:round;stroke-miterlimit:10;stroke-opacity:1;stroke-dasharray:none"
       id="path3007" />
    <path
       inkscape:connector-curvature="0"
       d="m 165.7298,356.0128 c 0,1.28967 -1.05084,2.34052 -2.34052,2.34052 -1.28967,0 -2.34051,-1.05085 -2.34051,-2.34052 0,-1.28967 1.05084,-2.34052 2.34051,-2.34052 1.28968,0 2.34052,1.05085 2.34052,2.34052 z"
       style="fill:#5b9bd5;fill-opacity:1;fill-rule:nonzero;stroke:none"
       id="path3009" />
    <path
       inkscape:connector-curvature="0"
       d="m 190.10621,381.95752 c 0,1.28967 -1.04288,2.33255 -2.34051,2.33255 -1.28968,0 -2.33256,-1.04288 -2.33256,-2.33255 0,-1.29764 1.04288,-2.34052 2.33256,-2.34052 1.29763,0 2.34051,1.04288 2.34051,2.34052 z"
       style="fill:#5b9bd5;fill-opacity:1;fill-rule:nonzero;stroke:none"
       id="path3011" />
    <path
       inkscape:connector-curvature="0"
       d="m 217.60332,407.89427 c 0,1.28968 -1.04289,2.34052 -2.33256,2.34052 -1.29763,0 -2.34052,-1.05084 -2.34052,-2.34052 0,-1.28967 1.04289,-2.34051 2.34052,-2.34051 1.28967,0 2.33256,1.05084 2.33256,2.34051 z"
       style="fill:#5b9bd5;fill-opacity:1;fill-rule:nonzero;stroke:none"
       id="path3013" />
    <path
       inkscape:connector-curvature="0"
       d="m 250.34668,433.83103 c 0,1.29763 -1.04288,2.34052 -2.33256,2.34052 -1.29763,0 -2.34051,-1.04289 -2.34051,-2.34052 0,-1.28967 1.04288,-2.33256 2.34051,-2.33256 1.28968,0 2.33256,1.04289 2.33256,2.33256 z"
       style="fill:#5b9bd5;fill-opacity:1;fill-rule:nonzero;stroke:none"
       id="path3015" />
    <path
       inkscape:connector-curvature="0"
       d="m 290.46188,459.77575 c 0,1.28967 -1.04288,2.33256 -2.33256,2.33256 -1.29763,0 -2.34051,-1.04289 -2.34051,-2.33256 0,-1.29764 1.04288,-2.34052 2.34051,-2.34052 1.28968,0 2.33256,1.04288 2.33256,2.34052 z"
       style="fill:#5b9bd5;fill-opacity:1;fill-rule:nonzero;stroke:none"
       id="path3017" />
    <path
       inkscape:connector-curvature="0"
       d="m 341.2129,485.71251 c 0,1.28967 -1.05084,2.34051 -2.34052,2.34051 -1.28967,0 -2.34051,-1.05084 -2.34051,-2.34051 0,-1.28968 1.05084,-2.34052 2.34051,-2.34052 1.28968,0 2.34052,1.05084 2.34052,2.34052 z"
       style="fill:#5b9bd5;fill-opacity:1;fill-rule:nonzero;stroke:none"
       id="path3019" />
    <path
       inkscape:connector-curvature="0"
       d="m 415.20192,511.64926 c 0,1.29764 -1.05084,2.34052 -2.34052,2.34052 -1.28967,0 -2.34052,-1.04288 -2.34052,-2.34052 0,-1.28967 1.05085,-2.33255 2.34052,-2.33255 1.28968,0 2.34052,1.04288 2.34052,2.33255 z"
       style="fill:#5b9bd5;fill-opacity:1;fill-rule:nonzero;stroke:none"
       id="path3021" />
    <path
       inkscape:connector-curvature="0"
       d="m 541.92423,537.59398 c 0,1.28967 -1.05084,2.34052 -2.34051,2.34052 -1.28968,0 -2.34052,-1.05085 -2.34052,-2.34052 0,-1.29763 1.05084,-2.34052 2.34052,-2.34052 1.28967,0 2.34051,1.04289 2.34051,2.34052 z"
       style="fill:#5b9bd5;fill-opacity:1;fill-rule:nonzero;stroke:none"
       id="path3023" />
    <path
       inkscape:connector-curvature="0"
       d="m 534.5524,356.0128 c 0,1.28967 -1.05084,2.34052 -2.34052,2.34052 -1.28967,0 -2.34052,-1.05085 -2.34052,-2.34052 0,-1.28967 1.05085,-2.34052 2.34052,-2.34052 1.28968,0 2.34052,1.05085 2.34052,2.34052 z"
       style="fill:#b3b3b3;fill-opacity:1;fill-rule:nonzero;stroke:none"
       id="path3025" />
    <path
       inkscape:connector-curvature="0"
       d="m 534.5524,356.0128 c 0,1.28967 -1.05084,2.34052 -2.34052,2.34052 -1.28967,0 -2.34052,-1.05085 -2.34052,-2.34052 0,-1.28967 1.05085,-2.34052 2.34052,-2.34052 1.28968,0 2.34052,1.05085 2.34052,2.34052 z"
       style="fill:none;stroke:#b3b3b3;stroke-width:0.85046768;stroke-linecap:butt;stroke-linejoin:round;stroke-miterlimit:10;stroke-opacity:1;stroke-dasharray:none"
       id="path3027" />
    <path
       inkscape:connector-curvature="0"
       d="m 508.18575,381.95752 c 0,1.28967 -1.04288,2.33255 -2.34052,2.33255 -1.28967,0 -2.33255,-1.04288 -2.33255,-2.33255 0,-1.29764 1.04288,-2.34052 2.33255,-2.34052 1.29764,0 2.34052,1.04288 2.34052,2.34052 z"
       style="fill:#b3b3b3;fill-opacity:1;fill-rule:nonzero;stroke:none"
       id="path3029" />
    <path
       inkscape:connector-curvature="0"
       d="m 508.18575,381.95752 c 0,1.28967 -1.04288,2.33255 -2.34052,2.33255 -1.28967,0 -2.33255,-1.04288 -2.33255,-2.33255 0,-1.29764 1.04288,-2.34052 2.33255,-2.34052 1.29764,0 2.34052,1.04288 2.34052,2.34052 z"
       style="fill:none;stroke:#b3b3b3;stroke-width:0.85046768;stroke-linecap:butt;stroke-linejoin:round;stroke-miterlimit:10;stroke-opacity:1;stroke-dasharray:none"
       id="path3031" />
    <path
       inkscape:connector-curvature="0"
       d="m 477.56796,407.89427 c 0,1.28968 -1.04288,2.34052 -2.34052,2.34052 -1.28967,0 -2.33256,-1.05084 -2.33256,-2.34052 0,-1.28967 1.04289,-2.34051 2.33256,-2.34051 1.29764,0 2.34052,1.05084 2.34052,2.34051 z"
       style="fill:#b3b3b3;fill-opacity:1;fill-rule:nonzero;stroke:none"
       id="path3033" />
    <path
       inkscape:connector-curvature="0"
       d="m 477.56796,407.89427 c 0,1.28968 -1.04288,2.34052 -2.34052,2.34052 -1.28967,0 -2.33256,-1.05084 -2.33256,-2.34052 0,-1.28967 1.04289,-2.34051 2.33256,-2.34051 1.29764,0 2.34052,1.05084 2.34052,2.34051 z"
       style="fill:none;stroke:#b3b3b3;stroke-width:0.85046768;stroke-linecap:butt;stroke-linejoin:round;stroke-miterlimit:10;stroke-opacity:1;stroke-dasharray:none"
       id="path3035" />
    <path
       inkscape:connector-curvature="0"
       d="m 441.56857,433.83103 c 0,1.29763 -1.05085,2.34052 -2.34052,2.34052 -1.28967,0 -2.34052,-1.04289 -2.34052,-2.34052 0,-1.28967 1.05085,-2.33256 2.34052,-2.33256 1.28967,0 2.34052,1.04289 2.34052,2.33256 z"
       style="fill:#b3b3b3;fill-opacity:1;fill-rule:nonzero;stroke:none"
       id="path3037" />
    <path
       inkscape:connector-curvature="0"
       d="m 441.56857,433.83103 c 0,1.29763 -1.05085,2.34052 -2.34052,2.34052 -1.28967,0 -2.34052,-1.04289 -2.34052,-2.34052 0,-1.28967 1.05085,-2.33256 2.34052,-2.33256 1.28967,0 2.34052,1.04289 2.34052,2.33256 z"
       style="fill:none;stroke:#b3b3b3;stroke-width:0.85046768;stroke-linecap:butt;stroke-linejoin:round;stroke-miterlimit:10;stroke-opacity:1;stroke-dasharray:none"
       id="path3039" />
    <path
       inkscape:connector-curvature="0"
       d="m 396.20711,459.77575 c 0,1.28967 -1.05085,2.33256 -2.34052,2.33256 -1.28967,0 -2.34052,-1.04289 -2.34052,-2.33256 0,-1.29764 1.05085,-2.34052 2.34052,-2.34052 1.28967,0 2.34052,1.04288 2.34052,2.34052 z"
       style="fill:#b3b3b3;fill-opacity:1;fill-rule:nonzero;stroke:none"
       id="path3041" />
    <path
       inkscape:connector-curvature="0"
       d="m 396.20711,459.77575 c 0,1.28967 -1.05085,2.33256 -2.34052,2.33256 -1.28967,0 -2.34052,-1.04289 -2.34052,-2.33256 0,-1.29764 1.05085,-2.34052 2.34052,-2.34052 1.28967,0 2.34052,1.04288 2.34052,2.34052 z"
       style="fill:none;stroke:#b3b3b3;stroke-width:0.85046768;stroke-linecap:butt;stroke-linejoin:round;stroke-miterlimit:10;stroke-opacity:1;stroke-dasharray:none"
       id="path3043" />
    <path
       inkscape:connector-curvature="0"
       d="m 341.2129,485.71251 c 0,1.28967 -1.05084,2.34051 -2.34052,2.34051 -1.28967,0 -2.34051,-1.05084 -2.34051,-2.34051 0,-1.28968 1.05084,-2.34052 2.34051,-2.34052 1.28968,0 2.34052,1.05084 2.34052,2.34052 z"
       style="fill:#b3b3b3;fill-opacity:1;fill-rule:nonzero;stroke:none"
       id="path3045" />
    <path
       inkscape:connector-curvature="0"
       d="m 341.2129,485.71251 c 0,1.28967 -1.05084,2.34051 -2.34052,2.34051 -1.28967,0 -2.34051,-1.05084 -2.34051,-2.34051 0,-1.28968 1.05084,-2.34052 2.34051,-2.34052 1.28968,0 2.34052,1.05084 2.34052,2.34052 z"
       style="fill:none;stroke:#b3b3b3;stroke-width:0.85046768;stroke-linecap:butt;stroke-linejoin:round;stroke-miterlimit:10;stroke-opacity:1;stroke-dasharray:none"
       id="path3047" />
    <path
       inkscape:connector-curvature="0"
       d="m 259.84409,511.64926 c 0,1.29764 -1.04289,2.34052 -2.33256,2.34052 -1.29763,0 -2.34052,-1.04288 -2.34052,-2.34052 0,-1.28967 1.04289,-2.33255 2.34052,-2.33255 1.28967,0 2.33256,1.04288 2.33256,2.33255 z"
       style="fill:#b3b3b3;fill-opacity:1;fill-rule:nonzero;stroke:none"
       id="path3049" />
    <path
       inkscape:connector-curvature="0"
       d="m 259.84409,511.64926 c 0,1.29764 -1.04289,2.34052 -2.33256,2.34052 -1.29763,0 -2.34052,-1.04288 -2.34052,-2.34052 0,-1.28967 1.04289,-2.33255 2.34052,-2.33255 1.28967,0 2.33256,1.04288 2.33256,2.33255 z"
       style="fill:none;stroke:#b3b3b3;stroke-width:0.85046768;stroke-linecap:butt;stroke-linejoin:round;stroke-miterlimit:10;stroke-opacity:1;stroke-dasharray:none"
       id="path3051" />
    <path
       inkscape:connector-curvature="0"
       d="m 119.23789,537.59398 c 0,1.28967 -1.05085,2.34052 -2.34052,2.34052 -1.28967,0 -2.34052,-1.05085 -2.34052,-2.34052 0,-1.29763 1.05085,-2.34052 2.34052,-2.34052 1.28967,0 2.34052,1.04289 2.34052,2.34052 z"
       style="fill:#b3b3b3;fill-opacity:1;fill-rule:nonzero;stroke:none"
       id="path3053" />
    <path
       inkscape:connector-curvature="0"
       d="m 119.23789,537.59398 c 0,1.28967 -1.05085,2.34052 -2.34052,2.34052 -1.28967,0 -2.34052,-1.05085 -2.34052,-2.34052 0,-1.29763 1.05085,-2.34052 2.34052,-2.34052 1.28967,0 2.34052,1.04289 2.34052,2.34052 z"
       style="fill:none;stroke:#b3b3b3;stroke-width:0.85046768;stroke-linecap:butt;stroke-linejoin:round;stroke-miterlimit:10;stroke-opacity:1;stroke-dasharray:none"
       id="path3055" />
    <path
       inkscape:connector-curvature="0"
       d="m 163.48482,356.53822 0.67668,0.74037 0.70852,0.84386 0.70852,0.85182 0.70853,0.70852 0.70852,0.85182 0.70853,0.70853 0.70852,0.85182 0.70852,0.85182 0.70853,0.70852 0.70852,0.85183 0.70853,0.70852 0.70852,0.70852 0.70852,0.84386 0.70853,0.70853 0.57319,0.85182 0.70852,0.70852 0.70852,0.70853 0.70853,0.85182 0.70852,0.70852 0.70853,0.70853 0.70852,0.70852 0.70853,0.85182 0.70852,0.70853 0.70852,0.70852 0.70853,0.70852 0.70852,0.70853 0.70853,0.70852 0.70852,0.85182 0.70852,0.70853 0.70853,0.70852 0.70852,0.70853 0.70853,0.70852 0.70852,0.70852 0.70852,0.70853 0.70853,0.70852 0.56523,0.70853 0.70852,0.70852 0.70852,0.57319 0.70853,0.70852 0.70852,0.70853 0.70853,0.70852 0.71648,0.70852 0.70852,0.70853 0.70853,0.70852 0.70852,0.56523 0.70853,0.70852 0.70852,0.70853 0.70852,0.70852 0.70853,0.56523 0.70852,0.70852 0.70853,0.70853 0.70852,0.56522 0.70853,0.71649 0.70852,0.70852 0.70852,0.56523 0.70853,0.70852 0.56522,0.56523 0.70853,0.70852 0.70852,0.56523 0.70853,0.70853 0.70852,0.57318 0.70852,0.70853 0.70853,0.56522 0.70852,0.70853 0.70853,0.56523 0.70852,0.70852 0.70852,0.56523 0.70853,0.56522 0.70852,0.70853 0.70853,0.57319 0.70852,0.56522 0.71649,0.70853 0.70852,0.56522 0.70852,0.56523 0.70853,0.57319 0.70852,0.70852 0.70853,0.56523 0.56522,0.56523 0.70853,0.56522 0.70852,0.57319 0.70853,0.70853 0.70852,0.56522 0.70852,0.56523 0.70853,0.56523 0.70852,0.56523 0.70853,0.57318 0.70852,0.56523 0.70852,0.56523 0.70853,0.56522 0.70852,0.57319 0.70853,0.56523 0.70852,0.56523 0.70852,0.56522 0.70853,0.56523 0.70852,0.57319 0.70853,0.56523 0.70852,0.56522 0.57319,0.56523 0.70852,0.57319 0.70853,0.56522 0.70852,0.42193 0.70852,0.56523 0.70853,0.57319 0.70852,0.56523 0.70853,0.56522 0.70852,0.42193 0.70853,0.57319 0.70852,0.56523 0.70852,0.56523 0.70853,0.42989 0.70852,0.56522 0.70853,0.56523 0.70852,0.42193 0.70852,0.57319 0.70853,0.56523 0.70852,0.42193 0.70853,0.56522 0.70852,0.42989 0.56523,0.56523 0.70852,0.56523 0.70853,0.42989 0.70852,0.56523 0.70852,0.42193 0.70853,0.57318 0.70852,0.42193 0.71649,0.56523 0.70852,0.42989 0.70852,0.56523 0.70853,0.42193 0.70852,0.57319 0.70853,0.42193 0.70852,0.42193 0.70852,0.57319 0.70853,0.42193 0.70852,0.56522 0.70853,0.42989 0.70852,0.42193 0.70853,0.56523 0.70852,0.42989 0.56523,0.42193 0.70852,0.42989 0.70852,0.56523 0.70853,0.42193 0.70852,0.42989 0.70853,0.56523 0.70852,0.42193 0.70852,0.42989 0.70853,0.42193 0.70852,0.42193 0.70853,0.57319 0.70852,0.42193 0.70852,0.42989 0.70853,0.42193 0.70852,0.42193 0.70853,0.42989 0.70852,0.42193 0.71649,0.42989 0.70852,0.56523 0.70852,0.42193 0.70853,0.42989 0.56523,0.42193 0.70852,0.42193 0.70852,0.42989 0.70853,0.42193 0.70852,0.42989 0.70853,0.42193 0.70852,0.42989 0.70852,0.42193 0.70853,0.42193 0.70852,0.42989 0.70853,0.27864 0.70852,0.42989 0.70852,0.42193 0.70853,0.42989 0.70852,0.42193 0.70853,0.42193 0.70852,0.42989 0.70852,0.42193 0.70853,0.42989 0.70852,0.27863 0.57319,0.42989 0.70852,0.42193 0.70853,0.4299 0.70852,0.42193 0.70853,0.28659 0.70852,0.42193 0.70852,0.42193 0.70853,0.42989 0.70852,0.27863 0.70853,0.4299 0.70852,0.42193 0.70853,0.28659 0.70852,0.42193 0.70852,0.42989 0.70853,0.27863 0.70852,0.42989 0.70853,0.42193 0.70852,0.2866 0.70852,0.42193 0.70853,0.42989 0.70852,0.27863 0.56523,0.42989 0.70852,0.27864 0.70853,0.42989 0.70852,0.42193 0.70853,0.28659 0.70852,0.42193 0.70852,0.2866 0.70853,0.42193 0.70852,0.28659 0.71649,0.42193 0.70852,0.28659 0.70852,0.42193 0.70853,0.2866 0.70852,0.42193 0.70853,0.28659 0.70852,0.42193 0.70852,0.2866 0.70853,0.27863 0.70852,0.42989 0.70853,0.28659 0.70852,0.42193 0.56523,0.2866 0.70852,0.27863 0.70853,0.42989 0.70852,0.27864 0.70852,0.42989 0.70853,0.27863 0.70852,0.28659 0.70853,0.42193 0.70852,0.2866 0.70852,0.27863 0.70853,0.42989 0.70852,0.27863 0.70853,0.2866 0.70852,0.28659 0.70852,0.42193 0.70853,0.2866 0.70852,0.27863 0.70853,0.28659 0.71648,0.42193 0.70853,0.2866 0.70852,0.28659 0.56523,0.27863 0.70852,0.2866 0.70853,0.42193 0.70852,0.28659 0.70852,0.27864 0.70853,0.28659 0.70852,0.28659 0.70853,0.27864 0.70852,0.42989 0.70852,0.27863 0.70853,0.2866 0.70852,0.28659 0.70853,0.27863 0.70852,0.2866 0.70852,0.27863 0.70853,0.28659 0.70852,0.2866 0.70853,0.27863 0.70852,0.42989 0.70852,0.27863 0.56523,0.2866 0.71649,0.27863 0.70852,0.2866 0.70852,0.28659 0.70853,0.27863 0.70852,0.2866 0.70853,0.27863 0.70852,0.28659 0.70852,0.2866 0.70853,0.27863 0.70852,0.28659 0.70853,0.2866 0.70852,0.13533 0.70853,0.2866 0.70852,0.28659 0.70852,0.27864 0.70853,0.28659 0.70852,0.27863 0.70853,0.2866 0.70852,0.28659 0.70852,0.27863 0.56523,0.2866 0.70852,0.27863 0.70853,0.1433 0.70852,0.28659 0.70853,0.27863 0.70852,0.2866 0.70852,0.28659 0.70853,0.27864 0.70852,0.14329 0.70853,0.2866 0.71648,0.27863 0.70853,0.28659 0.70852,0.2866 0.70852,0.13533 0.70853,0.2866 0.70852,0.28659 0.70853,0.27864 0.70852,0.28659 0.70852,0.1433 0.70853,0.27863 0.70852,0.28659 0.56523,0.27864 0.70852,0.14329 0.70853,0.2866 0.70852,0.27863 0.70853,0.1433 0.70852,0.28659 0.70852,0.27863 0.70853,0.1433 0.70852,0.2866 0.70853,0.28659 0.70852,0.13534 0.70852,0.28659 0.70853,0.28659 0.70852,0.13534 0.70853,0.28659 0.70852,0.2866 0.70852,0.13533 0.70853,0.2866 0.70852,0.28659 0.70853,0.13534 0.57319,0.28659 0.70852,0.1433 0.70852,0.27863 0.70853,0.2866 0.70852,0.14329 0.70853,0.27864 0.70852,0.14329 0.70852,0.2866 0.70853,0.14329 0.70852,0.27864 0.70853,0.28659 0.70852,0.1433 0.70852,0.27863 0.70853,0.1433 0.70852,0.28659 0.70853,0.1433 0.70852,0.27863 0.70852,0.1433 0.70853,0.28659 0.70852,0.13534 0.70853,0.28659 0.56522,0.1433 0.70853,0.27863 0.71648,0.1433 0.70853,0.1433 0.70852,0.28659 0.70852,0.13534 0.70853,0.28659 0.70852,0.1433 0.70853,0.27863 0.70852,0.1433 0.70852,0.28659 0.70853,0.1433 0.70852,0.13534 0.70853,0.28659 0.70852,0.1433 0.70853,0.27863 0.70852,0.1433 0.70852,0.14329 0.70853,0.2866 0.70852,0.14329 0.70853,0.13534 0.56522,0.28659 0.70853,0.1433 0.70852,0.27863 0.70852,0.1433 0.70853,0.1433 0.70852,0.28659 0.70853,0.13534 0.70852,0.1433 0.70852,0.28659 0.70853,0.1433 0.70852,0.13533 0.70853,0.1433 0.71648,0.28659 0.70853,0.1433 0.70852,0.13534 0.70852,0.28659 0.70853,0.1433 0.70852,0.14329 0.70853,0.13534 0.70852,0.28659 0.70852,0.1433 0.56523,0.1433 0.70853,0.13533 0.70852,0.2866 0.70852,0.1433 0.70853,0.14329 0.70852,0.1433 0.70853,0.27863 0.70852,0.1433 0.70852,0.1433 0.70853,0.14329 0.70852,0.27864 0.70853,0.14329 0.70852,0.1433 0.70852,0.1433 0.70853,0.13533 0.70852,0.1433 0.70853,0.28659 0.70852,0.1433 0.70852,0.13534 0.70853,0.14329 0.57319,0.1433 0.70852,0.1433 0.70852,0.27863 0.70853,0.1433 0.70852,0.1433 0.70853,0.14329 0.70852,0.1433 0.70853,0.13534 0.70852,0.14329 0.70852,0.2866 0.70853,0.14329 0.70852,0.13534 0.70853,0.1433 0.70852,0.14329 0.70852,0.1433 0.70853,0.1433 0.70852,0.13533 0.70853,0.1433 0.70852,0.1433 0.70852,0.28659 0.70853,0.1433 0.56523,0.13534 0.70852,0.14329 0.70852,0.1433 0.70853,0.1433 0.71648,0.14329 0.70853,0.13534 0.70852,0.1433 0.70852,0.14329 0.70853,0.1433 0.70852,0.1433 0.70853,0.13533 0.70852,0.1433 0.70852,0.1433 0.70853,0.14329 0.70852,0.1433 0.70853,0.13534 0.70852,0.14329 0.70853,0.1433 0.70852,0.1433 0.70852,0.1433 0.70853,0.13533 0.56522,0.1433 0.70853,0.1433 0.70852,0.14329 0.70853,0.1433 0.70852,0.13534 0.70852,0.14329 0.70853,0.1433 0.70852,0.1433 0.70853,0.14329 0.70852,0.13534 0.70852,0.1433 0.70853,0.14329 0.70852,0.1433 0.71649,0.1433 0.70852,0.14329 0.70853,0.13534 0.70852,0.1433 0.70852,0 0.70853,0.14329 0.70852,0.1433 0.70853,0.1433 0.56522,0.13533 0.70853,0.1433 0.70852,0.1433 0.70853,0.1433 0.70852,0.14329 0.70852,0.13534 0.70853,0 0.70852,0.1433 0.70853,0.14329 0.70852,0.1433 0.70852,0.1433 0.70853,0.13533 0.70852,0.1433 0.70853,0.1433 0.70852,0 0.70852,0.14329 0.70853,0.1433 0.70852,0.13534 0.70853,0.14329 0.70852,0.1433 0.57319,0.1433 0.70852,0 0.70853,0.14329 0.70852,0.13534 0.70852,0.1433 0.70853,0.14329 0.70852,0.1433 0.70853,0 0.70852,0.1433 0.70853,0.13534 0.70852,0.14329 0.70852,0.1433 0.70853,0 0.70852,0.1433 0.70853,0.14329 0.70852,0.13534 0.70852,0.1433 0.70853,0 0.70852,0.14329 0.70853,0.1433 0.70852,0.1433 0.56523,0 0.70852,0.14329 0.70853,0.13534 0.70852,0.1433 0.70852,0.14329 0.71649,0 0.70852,0.1433 0.70853,0.1433 0.70852,0.13533 0.70852,0 0.70853,0.1433 0.70852,0.1433 0.70853,0.1433 0.70852,0 0.70852,0.14329 0.70853,0.13534 0.70852,0 0.70853,0.1433 0.70852,0.14329 0.70853,0.1433 0.70852,0 0.56523,0.1433 0.70852,0.13533 0.76425,0.0717"
       style="fill:none;stroke:#5b9bd5;stroke-width:2.36241031;stroke-linecap:round;stroke-linejoin:round;stroke-miterlimit:10;stroke-opacity:0.4;stroke-dasharray:none"
       id="path3057" />
    <g
       id="g3059"
       transform="matrix(0.79609445,0,0,-0.79609445,25.744554,684.49729)">
      <g
         id="g3061"
         clip-path="url(#clipPath3063)">
        <path
           inkscape:connector-curvature="0"
           d="m 114.61,184.08 1.04,0.12 0.89,0.17 1.07,0.18 0.89,0 1.06,0.18 0.89,0.18 0.9,0 1.06,0.18 0.89,0.17 1.07,0.18 0.89,0 1.07,0.18 0.89,0.18 1.07,0.18 0.89,0 1.07,0.17 0.89,0.18 1.07,0.18 0.89,0 1.06,0.18 0.9,0.18 0.89,0.17 1.06,0 0.89,0.18 1.07,0.18 0.89,0.18 1.07,0 0.89,0.18 1.07,0.18 0.89,0.17 1.07,0.18 0.89,0 1.07,0.18 0.89,0.18 1.07,0.18 0.89,0.17 0.89,0.18 1.06,0 0.89,0.18 1.07,0.18 0.89,0.18 1.07,0.17 0.89,0 1.07,0.18 0.89,0.18 1.07,0.18 0.89,0.18 1.07,0.17 0.89,0.18 1.07,0 0.89,0.18 0.89,0.18 1.06,0.18 0.89,0.17 1.07,0.18 0.89,0.18 1.07,0 0.89,0.18 1.07,0.18 0.89,0.17 1.07,0.18 0.89,0.18 1.07,0.18 0.89,0.18 0.89,0.17 1.07,0.18 0.89,0 1.06,0.18 0.89,0.18 1.07,0.18 0.89,0.17 1.07,0.18 0.89,0.18 1.07,0.18 0.89,0.18 1.07,0.18 0.89,0.17 1.07,0.18 0.89,0.18 0.89,0.18 1.07,0.18 0.89,0.17 1.06,0.18 0.9,0.18 1.06,0.18 0.89,0.18 1.07,0.17 0.89,0.18 1.07,0.18 0.89,0.18 1.07,0.18 0.89,0.17 1.07,0.18 0.89,0.18 0.89,0.18 1.07,0.18 0.89,0.17 1.07,0.18 0.89,0.18 1.06,0.18 0.89,0.18 1.07,0.17 0.89,0.18 1.07,0.18 0.89,0.18 1.07,0.18 0.89,0.17 1.07,0.18 0.89,0.18 0.89,0.18 1.07,0.36 0.89,0.17 1.07,0.18 0.89,0.18 1.06,0.18 0.89,0.18 1.07,0.17 0.89,0.18 1.07,0.18 0.89,0.18 1.07,0.35 0.89,0.18 1.07,0.18 0.89,0.18 0.89,0.18 1.07,0.17 0.89,0.18 1.07,0.36 0.89,0.18 1.06,0.17 0.89,0.18 1.07,0.18 0.89,0.36 1.07,0.17 0.89,0.18 1.07,0.18 0.89,0.18 1.07,0.18 0.89,0.35 0.89,0.18 1.07,0.18 0.89,0.18 1.07,0.35 0.89,0.18 1.06,0.18 0.89,0.18 1.07,0.35 0.89,0.18 1.07,0.18 0.89,0.18 1.07,0.35 0.89,0.18 1.07,0.18 0.89,0.18 0.89,0.35 1.07,0.18 0.89,0.18 1.07,0.36 0.89,0.17 1.07,0.18 0.89,0.36 1.06,0.18 0.89,0.17 1.07,0.36 0.89,0.18 1.07,0.18 0.89,0.35 1.07,0.18 0.89,0.18 0.89,0.35 1.07,0.18 0.89,0.18 1.07,0.36 0.89,0.18 1.07,0.35 0.89,0.18 1.06,0.18 0.89,0.35 1.07,0.18 0.89,0.36 1.07,0.18 0.89,0.35 1.07,0.18 0.89,0.18 0.89,0.35 1.07,0.18 0.89,0.36 1.07,0.18 0.89,0.35 1.07,0.18 0.89,0.36 1.06,0.17 0.89,0.36 1.07,0.18 0.89,0.35 1.07,0.18 0.89,0.36 1.07,0.18 0.89,0.35 0.89,0.18 1.07,0.36 0.89,0.18 1.07,0.35 0.89,0.18 1.07,0.36 0.89,0.35 1.06,0.18 0.89,0.36 1.07,0.17 0.89,0.36 1.07,0.36 0.89,0.17 1.07,0.36 0.89,0.18 0.89,0.35 1.07,0.36 0.89,0.18 1.07,0.35 0.89,0.36 1.07,0.18 0.89,0.35 1.06,0.36 0.9,0.18 1.06,0.36 0.89,0.35 1.07,0.18 0.89,0.36 1.07,0.35 0.89,0.18 0.89,0.36 1.07,0.35 0.89,0.36 1.07,0.18 0.89,0.35 1.07,0.36 0.89,0.35 1.07,0.18 0.89,0.36 1.06,0.35 0.89,0.36 1.07,0.36 0.89,0.17 1.07,0.36 0.89,0.36 0.89,0.35 1.07,0.36 0.89,0.36 1.07,0.17 0.89,0.36 1.07,0.36 0.89,0.35 1.07,0.36 0.89,0.35 1.06,0.36 0.89,0.36 1.07,0.35 0.89,0.18 1.07,0.36 0.89,0.35 0.89,0.36 1.07,0.35 0.89,0.36 1.07,0.36 0.89,0.35 1.07,0.36 0.89,0.36 1.07,0.35 0.89,0.36 1.06,0.35 0.89,0.36 1.07,0.36 0.89,0.35 1.07,0.36 0.89,0.35 0.89,0.36 1.07,0.36 0.89,0.35 1.07,0.36 0.89,0.53 1.07,0.36 0.89,0.35 1.07,0.36 0.89,0.36 1.06,0.35 0.89,0.36 1.07,0.36 0.89,0.53 1.07,0.36 0.89,0.35 0.89,0.36 1.07,0.35 0.89,0.36 1.07,0.53 0.89,0.36 1.07,0.36 0.89,0.35 1.07,0.54 0.89,0.35 1.06,0.36 0.9,0.36 1.06,0.53 0.89,0.36 1.07,0.35 0.89,0.36 0.89,0.53 1.07,0.36 0.89,0.35 1.07,0.54 0.89,0.35 1.07,0.36 0.89,0.53 1.07,0.36 0.89,0.53 1.07,0.36 0.89,0.36 1.06,0.53 0.89,0.36 1.07,0.53 0.89,0.36 0.89,0.35 1.07,0.54 0.89,0.35 1.07,0.54 0.89,0.35 1.07,0.54 0.89,0.35 1.07,0.54 0.89,0.35 1.07,0.54 0.89,0.35 1.06,0.54 0.89,0.53 0.89,0.36 1.07,0.53 0.89,0.36 1.07,0.53 0.89,0.54 1.07,0.35 0.89,0.54 1.07,0.35 0.89,0.54 1.07,0.53 0.89,0.36 1.07,0.53 0.89,0.54 1.06,0.53 0.89,0.36 0.89,0.53 1.07,0.54 0.89,0.53 1.07,0.36 0.89,0.53 1.07,0.53 0.89,0.54 1.07,0.35 0.89,0.54 1.07,0.53 0.89,0.54 1.07,0.53 0.89,0.54 1.06,0.35 0.9,0.54 0.89,0.53 1.06,0.53 0.89,0.54 1.07,0.53 0.89,0.54 1.07,0.53 0.89,0.53 1.07,0.54 0.89,0.53 1.07,0.54 0.89,0.53 1.07,0.54 0.89,0.53 1.07,0.53 0.89,0.54 0.89,0.53 1.06,0.54 0.89,0.53 1.07,0.53 0.89,0.54 1.07,0.71 0.89,0.53 1.07,0.54 0.89,0.53 1.07,0.54 0.89,0.53 1.07,0.71 0.89,0.54 1.07,0.53 0.89,0.54 0.89,0.71 1.06,0.53 0.89,0.54 1.07,0.53 0.89,0.71 1.07,0.54 0.89,0.53 1.07,0.71 0.89,0.54 1.07,0.53 0.89,0.71 1.07,0.54 0.89,0.71 1.07,0.53 0.89,0.54 0.89,0.71 1.06,0.54 0.89,0.71 1.07,0.53 0.89,0.71 1.07,0.54 0.89,0.71 1.07,0.53 0.89,0.72 1.07,0.53 0.89,0.71 1.07,0.72 0.89,0.53 1.07,0.71 0.89,0.71 0.89,0.54 1.06,0.71 0.9,0.71 1.06,0.54 0.89,0.71 1.07,0.71 0.89,0.53 1.07,0.72 0.89,0.71 1.07,0.71 0.89,0.54 1.07,0.71 0.89,0.71 1.07,0.71 0.89,0.71 0.89,0.72 1.07,0.71 0.89,0.53 1.06,0.72 0.89,0.71 1.07,0.71 0.89,0.71 1.07,0.71 0.89,0.72 1.07,0.71 0.89,0.71 1.07,0.71 0.89,0.72 1.07,0.71 0.89,0.89 0.89,0.71 1.07,0.71 0.89,0.71 1.06,0.72 0.89,0.71 1.07,0.71 0.89,0.89 1.07,0.71 0.89,0.72 1.07,0.71 0.89,0.89 1.07,0.71 0.89,0.71 1.07,0.71 0.89,0.9 0.89,0.71 1.07,0.89 0.89,0.71 1.06,0.71 0.89,0.89 1.07,0.71 0.89,0.89 1.07,0.72 0.89,0.89 1.07,0.71 0.89,0.89 1.07,0.71 0.89,0.89 1.07,0.71 0.89,0.89 0.89,0.72 1.07,0.89 0.89,0.89 1.06,0.71 0.89,0.89 1.07,0.89 0.89,0.89 1.07,0.71 0.89,0.89 1.07,0.89 0.89,0.89 1.07,0.72 0.89,0.89 1.07,0.89 0.89,0.89 0.89,0.89 1.07,0.89 0.89,0.89 1.06,0.89 0.9,0.89 1.06,0.89 0.89,0.89 1.07,0.89 0.89,0.89 1.07,0.89 0.89,0.89 1.07,0.89 0.89,0.89 1.07,0.89 0.89,0.89 0.89,1.07 1.07,0.89 0.89,0.89 1.07,0.89 0.89,0.89 1.06,1.07 0.89,0.89 1.07,0.89 0.89,1.07 1.07,0.89 0.89,1.07 1.07,0.89 0.89,0.89 1.07,1.06 0.89,0.89 0.89,1.07 1.07,0.89 0.89,1.07 1.07,0.89 0.89,1.07 1.06,1.07 0.89,0.89 1.07,1.07 0.93,0.97"
           style="fill:none;stroke:#00b050;stroke-width:2.96749997;stroke-linecap:round;stroke-linejoin:round;stroke-miterlimit:10;stroke-opacity:0.4;stroke-dasharray:none"
           id="path3067" />
      </g>
    </g>
    <g
       id="g3069"
       transform="matrix(0.79609445,0,0,-0.79609445,25.744554,684.49729)">
      <g
         id="g3071"
         clip-path="url(#clipPath3073)">
        <text
           transform="matrix(1,0,0,-1,91.032,147)"
           id="text3077">
          <tspan
             style="font-size:14.7840004px;font-variant:normal;font-weight:normal;writing-mode:lr-tb;fill:#262626;fill-opacity:1;fill-rule:nonzero;stroke:none;font-family:Georgia;-inkscape-font-specification:Georgia"
             x="0"
             y="0"
             id="tspan3079">0</tspan>
        </text>
      </g>
    </g>
    <g
       id="g3081"
       transform="matrix(0.79609445,0,0,-0.79609445,25.744554,684.49729)">
      <g
         id="g3083"
         clip-path="url(#clipPath3085)">
        <text
           transform="matrix(1,0,0,-1,93.816,179.62)"
           id="text3089">
          <tspan
             style="font-size:14.7840004px;font-variant:normal;font-weight:normal;writing-mode:lr-tb;fill:#262626;fill-opacity:1;fill-rule:nonzero;stroke:none;font-family:Georgia;-inkscape-font-specification:Georgia"
             x="0"
             y="0"
             id="tspan3091">1</tspan>
        </text>
      </g>
    </g>
    <g
       id="g3093"
       transform="matrix(0.79609445,0,0,-0.79609445,25.744554,684.49729)">
      <g
         id="g3095"
         clip-path="url(#clipPath3097)">
        <text
           transform="matrix(1,0,0,-1,91.968,212.21)"
           id="text3101">
          <tspan
             style="font-size:14.7840004px;font-variant:normal;font-weight:normal;writing-mode:lr-tb;fill:#262626;fill-opacity:1;fill-rule:nonzero;stroke:none;font-family:Georgia;-inkscape-font-specification:Georgia"
             x="0"
             y="0"
             id="tspan3103">2</tspan>
        </text>
      </g>
    </g>
    <g
       id="g3105"
       transform="matrix(0.79609445,0,0,-0.79609445,25.744554,684.49729)">
      <g
         id="g3107"
         clip-path="url(#clipPath3109)">
        <text
           transform="matrix(1,0,0,-1,92.016,244.82)"
           id="text3113">
          <tspan
             style="font-size:14.7840004px;font-variant:normal;font-weight:normal;writing-mode:lr-tb;fill:#262626;fill-opacity:1;fill-rule:nonzero;stroke:none;font-family:Georgia;-inkscape-font-specification:Georgia"
             x="0"
             y="0"
             id="tspan3115">3</tspan>
        </text>
      </g>
    </g>
    <g
       id="g3117"
       transform="matrix(0.79609445,0,0,-0.79609445,25.744554,684.49729)">
      <g
         id="g3119"
         clip-path="url(#clipPath3121)">
        <text
           transform="matrix(1,0,0,-1,91.752,277.42)"
           id="text3125">
          <tspan
             style="font-size:14.7840004px;font-variant:normal;font-weight:normal;writing-mode:lr-tb;fill:#262626;fill-opacity:1;fill-rule:nonzero;stroke:none;font-family:Georgia;-inkscape-font-specification:Georgia"
             x="0"
             y="0"
             id="tspan3127">4</tspan>
        </text>
      </g>
    </g>
    <g
       id="g3129"
       transform="matrix(0.79609445,0,0,-0.79609445,25.744554,684.49729)">
      <g
         id="g3131"
         clip-path="url(#clipPath3133)">
        <text
           transform="matrix(1,0,0,-1,92.376,310.01)"
           id="text3137">
          <tspan
             style="font-size:14.76000023px;font-variant:normal;font-weight:normal;writing-mode:lr-tb;fill:#262626;fill-opacity:1;fill-rule:nonzero;stroke:none;font-family:Georgia;-inkscape-font-specification:Georgia"
             x="0"
             y="0"
             id="tspan3139">5</tspan>
        </text>
      </g>
    </g>
    <g
       id="g3141"
       transform="matrix(0.79609445,0,0,-0.79609445,25.744554,684.49729)">
      <g
         id="g3143"
         clip-path="url(#clipPath3145)">
        <text
           transform="matrix(1,0,0,-1,91.728,342.62)"
           id="text3149">
          <tspan
             style="font-size:14.7840004px;font-variant:normal;font-weight:normal;writing-mode:lr-tb;fill:#262626;fill-opacity:1;fill-rule:nonzero;stroke:none;font-family:Georgia;-inkscape-font-specification:Georgia"
             x="0"
             y="0"
             id="tspan3151">6</tspan>
        </text>
      </g>
    </g>
    <g
       id="g3153"
       transform="matrix(0.79609445,0,0,-0.79609445,25.744554,684.49729)">
      <g
         id="g3155"
         clip-path="url(#clipPath3157)">
        <text
           transform="matrix(1,0,0,-1,92.736,375.22)"
           id="text3161">
          <tspan
             style="font-size:14.76000023px;font-variant:normal;font-weight:normal;writing-mode:lr-tb;fill:#262626;fill-opacity:1;fill-rule:nonzero;stroke:none;font-family:Georgia;-inkscape-font-specification:Georgia"
             x="0"
             y="0"
             id="tspan3163">7</tspan>
        </text>
      </g>
    </g>
    <g
       id="g3165"
       transform="matrix(0.79609445,0,0,-0.79609445,25.744554,684.49729)">
      <g
         id="g3167"
         clip-path="url(#clipPath3169)">
        <text
           transform="matrix(1,0,0,-1,91.344,407.83)"
           id="text3173">
          <tspan
             style="font-size:14.7840004px;font-variant:normal;font-weight:normal;writing-mode:lr-tb;fill:#262626;fill-opacity:1;fill-rule:nonzero;stroke:none;font-family:Georgia;-inkscape-font-specification:Georgia"
             x="0"
             y="0"
             id="tspan3175">8</tspan>
        </text>
      </g>
    </g>
    <g
       id="g3177"
       transform="matrix(0.79609445,0,0,-0.79609445,25.744554,684.49729)">
      <g
         id="g3179"
         clip-path="url(#clipPath3181)">
        <text
           transform="matrix(1,0,0,-1,91.728,440.42)"
           id="text3185">
          <tspan
             style="font-size:14.76000023px;font-variant:normal;font-weight:normal;writing-mode:lr-tb;fill:#262626;fill-opacity:1;fill-rule:nonzero;stroke:none;font-family:Georgia;-inkscape-font-specification:Georgia"
             x="0"
             y="0"
             id="tspan3187">9</tspan>
        </text>
      </g>
    </g>
    <g
       id="g3189"
       transform="matrix(0.79609445,0,0,-0.79609445,25.744554,684.49729)">
      <g
         id="g3191"
         clip-path="url(#clipPath3193)">
        <text
           transform="matrix(1,0,0,-1,109.3,129)"
           id="text3197">
          <tspan
             style="font-size:14.7840004px;font-variant:normal;font-weight:normal;writing-mode:lr-tb;fill:#262626;fill-opacity:1;fill-rule:nonzero;stroke:none;font-family:Georgia;-inkscape-font-specification:Georgia"
             x="0"
             y="0"
             id="tspan3199">0</tspan>
        </text>
      </g>
    </g>
    <g
       id="g3201"
       transform="matrix(0.79609445,0,0,-0.79609445,25.744554,684.49729)">
      <g
         id="g3203"
         clip-path="url(#clipPath3205)">
        <text
           transform="matrix(1,0,0,-1,171.05,129)"
           id="text3209">
          <tspan
             style="font-size:14.7840004px;font-variant:normal;font-weight:normal;writing-mode:lr-tb;fill:#262626;fill-opacity:1;fill-rule:nonzero;stroke:none;font-family:Georgia;-inkscape-font-specification:Georgia"
             x="0 9.2659521"
             y="0"
             sodipodi:role="line"
             id="tspan3211">50</tspan>
        </text>
      </g>
    </g>
    <g
       id="g3213"
       transform="matrix(0.79609445,0,0,-0.79609445,25.744554,684.49729)">
      <g
         id="g3215"
         clip-path="url(#clipPath3217)">
        <text
           transform="matrix(1,0,0,-1,232.97,129)"
           id="text3221">
          <tspan
             style="font-size:14.7840004px;font-variant:normal;font-weight:normal;writing-mode:lr-tb;fill:#262626;fill-opacity:1;fill-rule:nonzero;stroke:none;font-family:Georgia;-inkscape-font-specification:Georgia"
             x="0 7.8355198 18.332161"
             y="0"
             sodipodi:role="line"
             id="tspan3223">100</tspan>
        </text>
      </g>
    </g>
    <g
       id="g3225"
       transform="matrix(0.79609445,0,0,-0.79609445,25.744554,684.49729)">
      <g
         id="g3227"
         clip-path="url(#clipPath3229)">
        <text
           transform="matrix(1,0,0,-1,299.88,129)"
           id="text3233">
          <tspan
             style="font-size:14.7840004px;font-variant:normal;font-weight:normal;writing-mode:lr-tb;fill:#262626;fill-opacity:1;fill-rule:nonzero;stroke:none;font-family:Georgia;-inkscape-font-specification:Georgia"
             x="0 7.8355198 17.090303"
             y="0"
             sodipodi:role="line"
             id="tspan3235">150</tspan>
        </text>
      </g>
    </g>
    <g
       id="g3237"
       transform="matrix(0.79609445,0,0,-0.79609445,25.744554,684.49729)">
      <g
         id="g3239"
         clip-path="url(#clipPath3241)">
        <text
           transform="matrix(1,0,0,-1,364.85,129)"
           id="text3245">
          <tspan
             style="font-size:14.7840004px;font-variant:normal;font-weight:normal;writing-mode:lr-tb;fill:#262626;fill-opacity:1;fill-rule:nonzero;stroke:none;font-family:Georgia;-inkscape-font-specification:Georgia"
             x="0 9.6096001 20.106239"
             y="0"
             sodipodi:role="line"
             id="tspan3247">200</tspan>
        </text>
      </g>
    </g>
    <g
       id="g3249"
       transform="matrix(0.79609445,0,0,-0.79609445,25.744554,684.49729)">
      <g
         id="g3251"
         clip-path="url(#clipPath3253)">
        <text
           transform="matrix(1,0,0,-1,431.76,129)"
           id="text3257">
          <tspan
             style="font-size:14.7840004px;font-variant:normal;font-weight:normal;writing-mode:lr-tb;fill:#262626;fill-opacity:1;fill-rule:nonzero;stroke:none;font-family:Georgia;-inkscape-font-specification:Georgia"
             x="0 9.6096001 18.864384"
             y="0"
             sodipodi:role="line"
             id="tspan3259">250</tspan>
        </text>
      </g>
    </g>
    <g
       id="g3261"
       transform="matrix(0.79609445,0,0,-0.79609445,25.744554,684.49729)">
      <g
         id="g3263"
         clip-path="url(#clipPath3265)">
        <text
           transform="matrix(1,0,0,-1,497.62,129)"
           id="text3269">
          <tspan
             style="font-size:14.7840004px;font-variant:normal;font-weight:normal;writing-mode:lr-tb;fill:#262626;fill-opacity:1;fill-rule:nonzero;stroke:none;font-family:Georgia;-inkscape-font-specification:Georgia"
             x="0 9.6096001 20.106239"
             y="0"
             sodipodi:role="line"
             id="tspan3271">300</tspan>
        </text>
      </g>
    </g>
    <g
       id="g3273"
       transform="matrix(0.79609445,0,0,-0.79609445,25.744554,684.49729)">
      <g
         id="g3275"
         clip-path="url(#clipPath3277)">
        <text
           transform="matrix(1,0,0,-1,564.55,129)"
           id="text3281">
          <tspan
             style="font-size:14.7840004px;font-variant:normal;font-weight:normal;writing-mode:lr-tb;fill:#262626;fill-opacity:1;fill-rule:nonzero;stroke:none;font-family:Georgia;-inkscape-font-specification:Georgia"
             x="0 9.6007681 18.84672"
             y="0"
             sodipodi:role="line"
             id="tspan3283">350</tspan>
        </text>
      </g>
    </g>
    <g
       id="g3285"
       transform="matrix(0.79609445,0,0,-0.79609445,25.744554,684.49729)">
      <g
         id="g3287"
         clip-path="url(#clipPath3289)">
        <text
           transform="matrix(1,0,0,-1,630.22,129)"
           id="text3293">
          <tspan
             style="font-size:14.7840004px;font-variant:normal;font-weight:normal;writing-mode:lr-tb;fill:#262626;fill-opacity:1;fill-rule:nonzero;stroke:none;font-family:Georgia;-inkscape-font-specification:Georgia"
             x="0 9.7929602 20.310335"
             y="0"
             sodipodi:role="line"
             id="tspan3295">400</tspan>
        </text>
      </g>
    </g>
    <g
       id="g3297"
       transform="matrix(0.79609445,0,0,-0.79609445,25.744554,684.49729)">
      <g
         id="g3299"
         clip-path="url(#clipPath3301)">
        <text
           transform="matrix(1,0,0,-1,697.32,129)"
           id="text3305">
          <tspan
             style="font-size:14.7840004px;font-variant:normal;font-weight:normal;writing-mode:lr-tb;fill:#262626;fill-opacity:1;fill-rule:nonzero;stroke:none;font-family:Georgia;-inkscape-font-specification:Georgia"
             x="0 9.7929602 19.038912"
             y="0"
             sodipodi:role="line"
             id="tspan3307">450</tspan>
        </text>
      </g>
    </g>
    <g
       id="g3309"
       transform="matrix(0.79609445,0,0,-0.79609445,25.744554,684.49729)">
      <g
         id="g3311"
         clip-path="url(#clipPath3313)">
        <text
           transform="matrix(-4.4e-8,1,1,4.4e-8,83.28,278.09)"
           id="text3317">
          <tspan
             style="font-size:14.7840004px;font-variant:normal;font-weight:normal;writing-mode:lr-tb;fill:#262626;fill-opacity:1;fill-rule:nonzero;stroke:none;font-family:Georgia;-inkscape-font-specification:Georgia"
             x="0 10.49664 17.962561 23.6544 31.844736"
             y="0"
             sodipodi:role="line"
             id="tspan3319">Price</tspan>
        </text>
      </g>
    </g>
    <g
       id="g3321"
       transform="matrix(0.79609445,0,0,-0.79609445,25.744554,684.49729)">
      <g
         id="g3323"
         clip-path="url(#clipPath3325)">
        <text
           transform="matrix(1,0,0,-1,378.7,107.69)"
           id="text3329">
          <tspan
             style="font-size:14.7840004px;font-variant:normal;font-weight:normal;writing-mode:lr-tb;fill:#262626;fill-opacity:1;fill-rule:nonzero;stroke:none;font-family:Georgia;-inkscape-font-specification:Georgia"
             x="0 12.462912 22.427328 31.312511 41.454334 48.033215 53.725056 60.303936"
             y="0"
             sodipodi:role="line"
             id="tspan3331">Quantity</tspan>
        </text>
      </g>
    </g>
    <g
       id="g3333"
       transform="matrix(0.79609445,0,0,-0.79609445,25.744554,684.49729)">
      <g
         id="g3335"
         clip-path="url(#clipPath3337)">
        <text
           transform="matrix(1,0,0,-1,328.54,468.14)"
           id="text3341">
          <tspan
             style="font-size:20.83200073px;font-variant:normal;font-weight:normal;writing-mode:lr-tb;fill:#262626;fill-opacity:1;fill-rule:nonzero;stroke:none;font-family:Georgia;-inkscape-font-specification:Georgia"
             x="0 14.0616 24.019297 31.477152 42.330624 53.892384 60.641953 75.411842 86.973602 94.431458 101.72266 109.18051 122.88797"
             y="0"
             sodipodi:role="line"
             id="tspan3343">Price Ceiling</tspan>
        </text>
      </g>
    </g>
    <path
       inkscape:connector-curvature="0"
       d="m 66.50459,616.10402 549.11411,0 0,-328.3412 -549.11411,0 0,328.3412 z"
       style="fill:none;stroke:#d9d9d9;stroke-width:0.88589388;stroke-linecap:butt;stroke-linejoin:round;stroke-miterlimit:10;stroke-opacity:1;stroke-dasharray:none"
       id="path3345" />
    <g
       id="g3347"
       transform="matrix(0.79609445,0,0,-0.79609445,27.764859,682.72952)">
      <g
         id="g3349"
         clip-path="url(#clipPath3351)">
        <text
           transform="matrix(1,0,0,-1,354.72,177.24)"
           id="text3355">
          <tspan
             style="font-size:16.3920002px;font-variant:normal;font-weight:normal;writing-mode:lr-tb;fill:#000000;fill-opacity:1;fill-rule:nonzero;stroke:none;font-family:Georgia;-inkscape-font-specification:Georgia"
             x="0 9.2450876 18.8508 27.735264 34.455982 40.193184 48.372791 56.71632"
             y="0"
             sodipodi:role="line"
             id="tspan3357">Shortage</tspan>
        </text>
      </g>
    </g>
    <g
       id="g3359"
       transform="matrix(0.79609445,0,0,-0.79609445,23.512411,684.67586)">
      <path
         inkscape:connector-curvature="0"
         d="m 293.74,212.11 0,-61.86"
         style="fill:none;stroke:#7f7f7f;stroke-width:1.48380005;stroke-linecap:butt;stroke-linejoin:miter;stroke-miterlimit:8;stroke-opacity:1;stroke-dasharray:5.9351, 4.4513;stroke-dashoffset:0"
         id="path3361" />
    </g>
    <g
       id="g3363"
       transform="matrix(0.79609445,0,0,-0.79609445,25.492016,684.49729)">
      <path
         inkscape:connector-curvature="0"
         d="m 486.37,212.39 0,-61.86"
         style="fill:none;stroke:#7f7f7f;stroke-width:1.48380005;stroke-linecap:butt;stroke-linejoin:miter;stroke-miterlimit:8;stroke-opacity:1;stroke-dasharray:5.9351, 4.4513;stroke-dashoffset:0"
         id="path3365" />
    </g>
    <path
       inkscape:connector-curvature="0"
       d="m 300.91671,537.119 -4.72881,0 0,1.18618 4.72881,0 0,-1.18618 z m -8.27143,0 -4.7288,0 0,1.18618 4.7288,0 0,-1.18618 z m -8.27142,0 -4.72084,0 0,1.18618 4.72084,0 0,-1.18618 z m -8.26346,0 -4.7288,0 0,1.18618 4.7288,0 0,-1.18618 z m -8.27142,0 -4.04416,0 0,1.18618 4.04416,0 0,-1.18618 z m -2.86594,-2.95351 -7.08524,3.55058 7.08524,3.54262 0,-7.0932 z"
       style="fill:#7f7f7f;fill-opacity:1;fill-rule:nonzero;stroke:none"
       id="path3367" />
    <path
       inkscape:connector-curvature="0"
       d="m 370.06754,537.11907 4.72084,0 0,1.17822 -4.72084,0 0,-1.17822 z m 8.26346,0 4.7288,0 0,1.17822 -4.7288,0 0,-1.17822 z m 8.27142,0 4.72084,0 0,1.17822 -4.72084,0 0,-1.17822 z m 8.27142,0 4.72084,0 0,1.17822 -4.72084,0 0,-1.17822 z m 8.26346,0 3.67,0 0,1.17822 -3.67,0 0,-1.17822 z m 2.48382,-2.95351 7.0932,3.54262 -7.0932,3.54262 0,-7.08524 z"
       style="fill:#7f7f7f;fill-opacity:1;fill-rule:nonzero;stroke:none"
       id="path3369" />
    <path
       inkscape:connector-curvature="0"
       d="m 117.40862,511.77384 474.68275,0"
       style="fill:none;stroke:#ff0000;stroke-width:1.18851709;stroke-linecap:butt;stroke-linejoin:miter;stroke-miterlimit:8;stroke-opacity:0.30196001;stroke-dasharray:none"
       id="path3371" />
  </g>
</svg>
